<svg xmlns="http://www.w3.org/2000/svg" width="128" height="128" viewBox="0 0 128 128" version="1.1">
	<path d="M 21.195 39.978 L 1 54.956 1 77.855 C 1 96.233, 1.276 100.984, 2.396 101.914 C 3.310 102.672, 7.370 102.973, 14.146 102.786 L 24.500 102.500 24.793 96.989 L 25.086 91.479 20.649 91.832 C 18.209 92.026, 15.253 91.671, 14.079 91.043 C 12.034 89.948, 11.957 89.316, 12.223 75.700 L 12.500 61.500 26 51.282 C 33.425 45.663, 40.261 40.803, 41.192 40.484 C 43.105 39.826, 54.551 46.928, 53.285 47.987 C 52.853 48.348, 50.587 50.112, 48.250 51.906 L 44 55.168 44 78.477 C 44 98.809, 44.202 101.864, 45.582 102.393 C 47.644 103.184, 80.356 103.184, 82.418 102.393 C 83.798 101.864, 84 98.809, 84 78.477 L 84 55.168 79.750 51.906 C 77.412 50.112, 75.147 48.348, 74.715 47.987 C 73.449 46.928, 84.895 39.826, 86.808 40.484 C 87.739 40.803, 94.575 45.663, 102 51.282 L 115.500 61.500 115.777 75.700 C 116.043 89.316, 115.966 89.948, 113.921 91.043 C 112.747 91.671, 109.791 92.026, 107.351 91.832 L 102.914 91.479 103.207 96.989 L 103.500 102.500 113.854 102.786 C 120.630 102.973, 124.690 102.672, 125.604 101.914 C 126.724 100.984, 127 96.233, 127 77.855 L 127 54.956 106.805 39.978 C 95.697 31.740, 86.054 25, 85.376 25 C 84.698 25, 79.611 28.373, 74.071 32.495 L 64 39.991 53.929 32.495 C 48.389 28.373, 43.302 25, 42.624 25 C 41.946 25, 32.303 31.740, 21.195 39.978 M 58.776 57.787 L 55.051 60.500 55.026 75.750 L 55 91 64 91 L 73 91 72.979 75.750 L 72.957 60.500 69.069 57.750 C 64.295 54.374, 63.457 54.377, 58.776 57.787" stroke="none" fill="black" fill-rule="evenodd"/>
</svg>